<?xml version="1.0" encoding="iso-8859-1"?>
<!-- Generator: Adobe Illustrator 19.0.0, SVG Export Plug-In . SVG Version: 6.00 Build 0)  -->
<svg version="1.1" id="Capa_1" xmlns="http://www.w3.org/2000/svg" xmlns:xlink="http://www.w3.org/1999/xlink" x="0px" y="0px"
	 viewBox="0 0 512.004 512.004" style="enable-background:new 0 0 512.004 512.004;" xml:space="preserve">
<g>
	<g>
		<g>
			<path fill="#A0522D" d="M232.002,480c-100.8,0-176-33.76-176-64V308.48c36.16,26.56,100,43.52,176,43.52h16v-32h-16c-100.8,0-176-33.76-176-64
				V148.48c36.16,26.56,100,43.52,176,43.52s139.84-16.96,176-43.52V256h32V96c0-54.72-89.44-96-208-96s-208,41.28-208,96v320
				c0,54.72,89.44,96,208,96c27.855,0.112,55.658-2.406,83.04-7.52l-6.08-32C283.602,477.4,257.835,479.918,232.002,480z
				 M232.002,32c100.8,0,176,33.76,176,64s-75.2,64-176,64s-176-33.76-176-64S131.202,32,232.002,32z"/>
			<path d="M408.002,464V342.56l36.64,36.64l22.56-22.56l-64-64c-6.241-6.204-16.319-6.204-22.56,0l-64,64l22.56,22.56l36.8-36.64
				V464c0,17.673,14.327,32,32,32h80v-32H408.002z"/>
		</g>
	</g>
</g>
<g>
</g>
<g>
</g>
<g>
</g>
<g>
</g>
<g>
</g>
<g>
</g>
<g>
</g>
<g>
</g>
<g>
</g>
<g>
</g>
<g>
</g>
<g>
</g>
<g>
</g>
<g>
</g>
<g>
</g>
</svg>
