<?xml version="1.0"?>
<svg xmlns="http://www.w3.org/2000/svg" id="outline" viewBox="0 0 512 512" width="512" height="512"><path d="M460.418,84.88574,131.44653,48.33356,119.32227,20.77832A7.99977,7.99977,0,0,0,112,16H40a24,24,0,0,0,0,48H82.78027l84.01392,190.9408-45.19458,60.2594A8.00222,8.00222,0,0,0,120,320v88a8.00008,8.00008,0,0,0,8,8h48v3.33173a40.02829,40.02829,0,1,0,47.523,12.0708L235.84521,416H384v3.33173a40.02829,40.02829,0,1,0,47.52295,12.0708L443.84521,416H472a24,24,0,0,0,0-48H168V330.80615L195.84473,296H288a8.0009,8.0009,0,0,0,6.40039-3.2002L316.00024,264H488a8.00008,8.00008,0,0,0,8-8V124.6416A39.95922,39.95922,0,0,0,460.418,84.88574ZM205.21973,216l-24.6399-56H208v56ZM224,160h56v56H224Zm128-16H296V82.71594l56,6.22217Zm16-53.28412,56,6.22217V144H368ZM280,144H224V74.716l56,6.22217Zm16,16h56v56H296Zm72,0h56v56H368Zm72,0h40v56H440Zm40-35.3584V144H440V98.71582l18.65039,2.07227A23.97594,23.97594,0,0,1,480,124.6416ZM208,72.93823V144H173.53979L138.894,65.25983ZM216,456a24,24,0,1,1-40-17.8858V448a8.00008,8.00008,0,0,0,8,8h16a7.99951,7.99951,0,0,0,6.24707-3.00244l6.80273-8.50354A23.9901,23.9901,0,0,1,216,456Zm-19.84473-16H192V416h23.35547ZM424,456a24,24,0,1,1-40-17.8858V448a8.00008,8.00008,0,0,0,8,8h16a7.99951,7.99951,0,0,0,6.24707-3.00244l6.80273-8.50354A23.9901,23.9901,0,0,1,424,456Zm-19.84473-16H400V416h23.35547ZM480,392a8.00917,8.00917,0,0,1-8,8H136V384H472A8.00917,8.00917,0,0,1,480,392ZM284,280H192a7.99951,7.99951,0,0,0-6.24707,3.00244l-32,40A8.00033,8.00033,0,0,0,152,328v40H136V322.6665L180,264H296Zm196-32H181.21973L95.32227,52.77832A7.99977,7.99977,0,0,0,88,48H40a8,8,0,0,1,0-16h66.78027l85.89746,195.22168A7.99977,7.99977,0,0,0,200,232H480Z"/></svg>
