<?xml version="1.0" encoding="iso-8859-1"?>
<!-- Generator: Adobe Illustrator 19.0.0, SVG Export Plug-In . SVG Version: 6.00 Build 0)  -->
<svg version="1.1" id="Layer_1" xmlns="http://www.w3.org/2000/svg" xmlns:xlink="http://www.w3.org/1999/xlink" x="0px" y="0px"
	 viewBox="0 0 512 512" style="enable-background:new 0 0 512 512;" xml:space="preserve">
<path style="fill:#4B92B9;" d="M381.388,504.163H130.612c-11.542,0-20.898-9.356-20.898-20.898V28.735
	c0-11.542,9.356-20.898,20.898-20.898h250.775c11.542,0,20.898,9.356,20.898,20.898v454.531
	C402.286,494.807,392.93,504.163,381.388,504.163z"/>
<circle cx="202.271" cy="37.878" r="10.449"/>
<circle cx="170.924" cy="37.878" r="7.837"/>
<path d="M278.645,45.714h-45.29c-4.328,0-7.837-3.509-7.837-7.837l0,0c0-4.328,3.509-7.837,7.837-7.837h45.29
	c4.328,0,7.837,3.509,7.837,7.837l0,0C286.482,42.206,282.973,45.714,278.645,45.714z"/>
<rect x="109.714" y="67.918" style="fill:#CAF9F4;" width="292.571" height="376.163"/>
<path d="M381.388,0H130.612c-15.845,0-28.735,12.891-28.735,28.735v454.531c0,15.844,12.89,28.735,28.735,28.735h250.775
	c15.845,0,28.735-12.891,28.735-28.735V28.735C410.122,12.891,397.233,0,381.388,0z M130.612,15.673h250.775
	c7.203,0,13.061,5.859,13.061,13.061v31.347H117.551V28.735C117.551,21.532,123.41,15.673,130.612,15.673z M394.449,75.755v360.49
	H117.551V75.755H394.449z M381.388,496.327H130.612c-7.202,0-13.061-5.859-13.061-13.061v-31.347h276.898v31.347
	C394.449,490.468,388.59,496.327,381.388,496.327z"/>
<path style="fill:#FFFFFF;" d="M284.735,487.184h-57.469c-7.214,0-13.061-5.847-13.061-13.061l0,0
	c0-7.214,5.847-13.061,13.061-13.061h57.469c7.214,0,13.061,5.847,13.061,13.061l0,0
	C297.796,481.336,291.949,487.184,284.735,487.184z"/>
<g>
</g>
<g>
</g>
<g>
</g>
<g>
</g>
<g>
</g>
<g>
</g>
<g>
</g>
<g>
</g>
<g>
</g>
<g>
</g>
<g>
</g>
<g>
</g>
<g>
</g>
<g>
</g>
<g>
</g>
</svg>
