<?xml version="1.0"?>
<svg xmlns="http://www.w3.org/2000/svg" viewBox="0 0 512 512" width="512" height="512"><g id="User_Setting" data-name="User Setting"><g id="Glyph"><path style="fill:#FFFFFF;" d="M162.229,85.855A68.116,68.116,0,0,1,196.8,95.294l12.175,7.179.367.245a55.267,55.267,0,0,0,61.313,0l.367-.245L283.2,95.294a68.113,68.113,0,0,1,34.572-9.439,66.083,66.083,0,0,1,45.887,18.168,125.954,125.954,0,0,0-31-63.169,125.491,125.491,0,0,0-185.306,0,125.964,125.964,0,0,0-31.006,63.169A66.087,66.087,0,0,1,162.229,85.855Z"/><path style="fill:#FFFFFF;" d="M319.315,512l-43.609-45.314,16.318-31.873S160.08,400,160.08,339.212h0a5.837,5.837,0,0,0-6.881-5.742L65.689,349.38A80,80,0,0,0,0,428.089V504a8,8,0,0,0,8,8H56a8,8,0,0,0,8-8V448.274a8.183,8.183,0,0,1,7.468-8.257A8,8,0,0,1,80,448v56a8,8,0,0,0,8,8Z"/><path style="fill:#FFFFFF;" d="M512,412.19V373.81l-30.561-9.854-5.357-12.93,14.661-28.634-27.135-27.135-28.634,14.662-12.93-5.358L412.19,274H373.81l-9.854,30.561-12.93,5.357-28.634-14.661-27.135,27.135,14.662,28.634-5.358,12.93L274,373.81v38.38l30.561,9.854,5.357,12.93-14.661,28.634,27.135,27.135,28.634-14.662,12.93,5.358L373.81,512h38.38l9.854-30.561,12.93-5.357,28.634,14.661,27.135-27.135-14.662-28.634,5.358-12.93ZM392,440a48,48,0,1,1,48-48A48.053,48.053,0,0,1,392,440Z"/><circle cx="392" cy="392" r="32"/><path style="fill:#FFFFFF;" d="M240,312a110.19,110.19,0,0,1-103.518-72.475,36.628,36.628,0,0,1-29.675-27.31l-4.4-17.6a28.093,28.093,0,0,1,5.04-24.387,27.208,27.208,0,0,1,12.037-8.623l-3.3-23.945a16.074,16.074,0,0,1,1.823-9.9,49.392,49.392,0,0,1,4.219-6.462c15.648-20.338,44.339-25.267,66.442-12.23l11.8,6.961a71.285,71.285,0,0,0,79.064,0l11.8-6.962c22.1-13.037,50.793-8.107,66.441,12.231A49.289,49.289,0,0,1,362,127.765a16.074,16.074,0,0,1,1.823,9.9l-3.3,23.945a27.388,27.388,0,0,1,17.237,32.368l-4.56,18.24a36.623,36.623,0,0,1-29.674,27.31A110.19,110.19,0,0,1,240,312Z"/></g></g></svg>
