<svg height="445pt" viewBox="0 -45 445.98997 445" width="445pt" xmlns="http://www.w3.org/2000/svg"><path style="fill:#FFFFFF;" d="m387.832031 55.402344h1.425781c11.589844-.011719 20.984376-9.40625 21-21v-12.90625c-.015624-11.59375-9.410156-20.988282-21-21h-1.425781c-11.59375.011718-20.988281 9.40625-21 21v12.90625c.011719 11.59375 9.40625 20.988281 21 21zm0 0"/><path style="fill:#FFFFFF;" d="m423.164062 94.667969h-3.40625l-9.421874 14.789062c-1.996094 3.128907-6.082032 4.160157-9.320313 2.347657l-11.808594-6.597657-10.90625 6.476563c-1.601562.972656-3.53125 1.265625-5.351562.804687-1.816407-.460937-3.375-1.628906-4.324219-3.25l-8.527344-14.566406h-4.160156c-6.457031 0-12.613281 2.730469-16.941406 7.519531-4.328125 4.789063-6.429688 11.1875-5.777344 17.609375.023438.234375.035156.472657.035156.707031v74.367188l22.546875 30.753906c.816407 1.113282 1.285157 2.445313 1.347657 3.824219l5.148437 115.21875c.152344 5.5 4.664063 9.871094 10.164063 9.859375h34.335937c5.480469.019531 9.980469-4.320312 10.160156-9.796875l5.148438-115.277344c.058593-1.371093.523437-2.695312 1.332031-3.808593l22.402344-30.769532v-74.371094c0-.234374.011718-.472656.035156-.707031.648438-6.421875-1.449219-12.816406-5.777344-17.605469-4.328125-4.789062-10.480468-7.523437-16.933594-7.527343zm0 0"/><path style="fill:#FFFFFF;" d="m221.28125 55.402344h1.421875c11.59375-.011719 20.988281-9.40625 21-21v-12.90625c-.011719-11.59375-9.40625-20.988282-21-21h-1.421875c-11.59375.011718-20.988281 9.40625-21 21v12.90625c.011719 11.59375 9.40625 20.988281 21 21zm0 0"/><path style="fill:#FFFFFF;" d="m256.613281 94.667969h-3.410156l-9.421875 14.789062c-1.992188 3.128907-6.082031 4.160157-9.320312 2.347657l-11.804688-6.597657-10.902344 6.472657c-1.121094.699218-2.417968 1.050781-3.738281 1.019531-2.449219-.035157-4.703125-1.347657-5.941406-3.460938l-8.523438-14.5625h-4.164062c-6.457031 0-12.609375 2.730469-16.941407 7.519531-4.328124 4.789063-6.429687 11.1875-5.777343 17.613282.023437.234375.035156.46875.035156.703125v74.371093l22.542969 30.75c.820312 1.113282 1.289062 2.445313 1.351562 3.828126l5.140625 115.214843c.15625 5.5 4.664063 9.875 10.167969 9.863281h34.335938c5.480468.015626 9.984374-4.324218 10.164062-9.800781l5.144531-115.277343c.0625-1.371094.527344-2.695313 1.335938-3.808594l22.398437-30.769532v-74.375c0-.234374.011719-.472656.035156-.707031.652344-6.421875-1.449218-12.816406-5.773437-17.605469-4.328125-4.789062-10.480469-7.523437-16.9375-7.527343zm0 0"/><path style="fill:#FFFFFF;" d="m54.730469 55.402344h1.421875c11.59375-.011719 20.988281-9.40625 21-21v-12.90625c-.011719-11.59375-9.40625-20.988282-21-21h-1.421875c-11.59375.011718-20.988281 9.40625-21 21v12.90625c.011719 11.59375 9.40625 20.988281 21 21zm0 0"/><path style="fill:#FFFFFF;" d="m90.0625 94.667969h-3.410156l-9.421875 14.789062c-1.992188 3.128907-6.082031 4.160157-9.320313 2.347657l-11.804687-6.597657-10.902344 6.472657c-1.121094.699218-2.417969 1.054687-3.738281 1.019531-2.449219-.035157-4.703125-1.347657-5.941406-3.460938l-8.527344-14.566406h-4.160156c-6.457032 0-12.613282 2.730469-16.941407 7.519531-4.328125 4.789063-6.429687 11.1875-5.777343 17.609375.023437.234375.035156.472657.035156.707031v74.367188l22.542968 30.753906c.816407 1.113282 1.285157 2.445313 1.347657 3.824219l5.144531 115.21875c.15625 5.5 4.664062 9.871094 10.164062 9.859375h34.34375c5.480469.019531 9.984376-4.320312 10.164063-9.796875l5.144531-115.277344c.0625-1.371093.527344-2.695312 1.335938-3.808593l22.398437-30.769532v-74.371094c0-.234374.011719-.472656.035157-.707031.652343-6.421875-1.445313-12.820312-5.773438-17.609375-4.328125-4.789062-10.480469-7.519531-16.9375-7.523437zm0 0"/></svg>