<svg style="fill:#FFFFFF;" id="Capa_1" enable-background="new 0 0 512 512" height="512" viewBox="0 0 512 512" width="512" xmlns="http://www.w3.org/2000/svg"><g><path d="m61.298 512h375.702c41.355 0 75-33.645 75-75v-15h-32.58c1.665-4.695 2.58-9.742 2.58-15s-.915-10.305-2.58-15h32.58v-45c0-55.314-40.605-106-140.868-106h-76.868l5.438-60h31.298v-30h-35.729l-30-60h-78.531l20.109-61h94.151v-30h-115.849l-30 91h-89.422l-30 60h-35.729v30h31.298zm375.702-30h-164.579l2.719-30.01h204.29c-6.191 17.471-22.873 30.01-42.43 30.01zm15-75c0 8.271-6.729 15-15 15h-159.141l2.719-30h156.422c8.271 0 15 6.729 15 15zm-80.868-136c57.066 0 110.868 19.374 110.868 76v15h-198.703l8.248-91zm-128.834 211h-153.596l-27.281-301h208.159zm-158.027-361h162.459l15 30h-192.46z"/></g></svg>