<svg height="512pt" viewBox="-1 0 512 512" width="512pt" xmlns="http://www.w3.org/2000/svg"><path  fill=" #276955" d="m192.496094 83.203125c17.417968 0 33.691406-11.027344 39.476562-28.644531l-29.941406-10.460938 56.226562 2.074219c.125.003906.25.003906.375.003906 5.351563 0 9.785157-4.238281 9.984376-9.628906.203124-5.515625-4.105469-10.15625-9.625-10.355469l-28.324219-1.046875c-6.734375-15.648437-22.039063-25.144531-38.203125-25.144531-29.285156 0-49.445313 29.632812-38.65625 56.902344 6.464844 16.335937 22.125 26.300781 38.6875 26.300781zm0 0"/><path  fill=" #276955" d="m132.015625 369.605469c-39.320313 0-71.199219 31.875-71.199219 71.195312 0 39.324219 31.878906 71.199219 71.199219 71.199219s71.199219-31.875 71.199219-71.199219c-.003906-39.320312-31.878906-71.195312-71.199219-71.195312zm0 94.714843c-12.988281 0-23.519531-10.53125-23.519531-23.519531s10.53125-23.515625 23.519531-23.515625 23.519531 10.527344 23.519531 23.515625c-.003906 12.988281-10.53125 23.519531-23.519531 23.519531zm0 0"/><path fill=" #276955" d="m374.652344 369.605469c-39.324219 0-71.199219 31.875-71.199219 71.195312 0 39.324219 31.875 71.199219 71.199219 71.199219 39.320312 0 71.195312-31.875 71.195312-71.199219 0-39.320312-31.875-71.195312-71.195312-71.195312zm0 94.714843c-12.988282 0-23.519532-10.53125-23.519532-23.519531s10.53125-23.515625 23.519532-23.515625c12.988281 0 23.515625 10.527344 23.515625 23.515625s-10.527344 23.519531-23.515625 23.519531zm0 0"/><path  fill=" #276955" d="m429.84375 317.171875c4.988281-65.554687-55.191406-92.359375-55.191406-92.359375l-14.464844-28.914062-4.714844-18.796876h18.742188c9.328125 0 17.25-7.632812 17.074218-16.960937-.167968-9.046875-7.554687-16.328125-16.636718-16.328125h-40.507813c-1.863281 0-3.6875.320312-5.40625.914062 3.472657-4.667968 4.90625-10.796874 3.386719-16.878906-2.691406-10.765625-13.597656-17.3125-24.363281-14.617187l-70.476563 17.027343v-2.972656c0-15.230468-12.347656-27.578125-27.578125-27.578125h-50.5c-15.230469 0-27.582031 12.34375-27.582031 27.578125v140.796875h-24.085938c6.855469 0 12.414063-5.558593 12.414063-12.414062v-117.371094c0-6.859375-5.558594-12.417969-12.414063-12.417969h-90.910156c-6.859375 0-12.417968 5.558594-12.417968 12.417969v117.371094c0 6.855469 5.558593 12.414062 12.417968 12.414062h32.117188c-5.15625 0-9.339844 4.183594-9.339844 9.339844v41.242187c0 5.15625 4.183594 9.335938 9.339844 9.335938h11.640625c-31.746094 20.199219-53.789063 52.953125-60.113281 90.425781-1.992188 11.796875 7.226562 22.519531 19.191406 22.519531 9.515625 0 17.558594-6.902343 19.175781-16.28125 7.675781-44.570312 46.617187-78.613281 93.375-78.613281 52.289063 0 94.839844 42.585938 94.75 94.894531h53.136719c-.023438-14.96875 3.472656-30.09375 10.878906-44.152343h-16.75c3.546875-2.390625 6.507812-5.742188 8.425781-9.910157l46.71875-101.523437c6.699219-14.558594-2.390625-31.542969-18.269531-33.992187l-73.621094-11.363282v-34.363281c-4.152344-.910156-11.199218.269531-16.707031-5.753906l-38.949219-42.71875 46.5625 31.449219c2.648438 1.789062 5.683594 2.917968 8.859375 3.300781 80.195313 9.539062 75.839844 9.199219 78.121094 9.199219 10.03125 0 18.699219-7.5 19.921875-17.707032 1.316406-11.015625-6.542969-21.015625-17.5625-22.332031l-70.882812-8.476563-42.527344-28.726562 39.320312 14.648438 75.035156 8.972656c18.546876 2.21875 32.449219 19.273437 30.085938 37.800781-1.5 11.730469-8.878906 21.285156-18.8125 26.078125l28.722656 114.566406c1.859375 7.417969 8.484375 12.742188 16.132813 12.738282 56.203125-.023438 101.945312 45.640624 102.042969 101.8125v.3125c0 9.191406 7.449218 16.644531 16.640624 16.644531 9.066407 0 16.4375-7.246094 16.640626-16.261719.003906-.171875.003906-.355469.003906-.511719 0-54.949219-32.929688-102.347656-80.089844-123.503906zm-184.371094 10.828125c5.15625 0 9.335938-4.179688 9.335938-9.335938v-27.042968l17.0625 2.632812-31.480469 68.402344c-9.929687-13.746094-22.410156-25.53125-36.746094-34.65625zm0 0"/></svg>