<?xml version="1.0" encoding="iso-8859-1"?>
<!-- Generator: Adobe Illustrator 18.1.1, SVG Export Plug-In . SVG Version: 6.00 Build 0)  -->
<svg version="1.1" id="Capa_1" xmlns="http://www.w3.org/2000/svg" xmlns:xlink="http://www.w3.org/1999/xlink" x="0px" y="0px"
	 viewBox="0 0 228.209 228.209" style="enable-background:new 0 0 228.209 228.209;" xml:space="preserve">
<g>
	<g>
		<path style="fill:  #0e0f0e;" d="M207.001,149.291c-0.072-17.978-0.131-35.962-0.197-53.941c-0.036-10.627,0.812-21.23,0.758-31.851
			c-0.036-7.089-1.014-14.082-4.254-20.46c-3.312-6.534-8.855-11.612-14.72-15.967c2.942,0,5.877,0,8.825,0c0.298,0,0.597,0,0.895,0
			c0.662,0,1.152-0.251,1.533-0.597c0.048-0.036,0.095-0.066,0.137-0.107c0.054-0.06,0.095-0.125,0.137-0.185
			c0.334-0.376,0.573-0.853,0.573-1.498c0-7.435,0-14.869,0-22.298c0-1.301-1.092-2.387-2.381-2.387c-25.908,0-51.822,0-77.718,0
			C91.405,0,62.221,0,33.043,0c-0.298,0-0.597,0-0.895,0c-1.301,0-2.387,1.086-2.387,2.387c0,7.435,0,14.869,0,22.298
			c0,1.301,1.086,2.387,2.387,2.387c2.739,0,5.478,0,8.216,0c-7.972,5.215-14.094,12.238-16.952,21.713
			c-2.19,7.262-2.613,15.013-2.542,22.728c-0.137,0.298-0.227,0.627-0.227,0.979c0,29.417,0,58.833,0,88.25c0,2.452,0,4.905,0,7.357
			c0,0.424,0.149,0.812,0.352,1.158c-0.078,6.88-0.525,13.604,0.382,20.496c1.146,8.688,3.938,17,9.505,23.862
			c11.617,14.32,30.759,14.595,47.628,14.595c17.441,0,34.876,0,52.318,0c6.993,0,13.98,0,20.974,0
			c8.204,0,16.296,0.018,24.321-1.963c9.601-2.375,18.08-7.775,23.605-16.039c4.821-7.214,6.713-16.021,7.417-24.542
			c0.519-6.247-0.06-12.411-0.084-18.658C207.031,161.1,207.019,155.198,207.001,149.291z M195.915,4.773c0,5.842,0,11.683,0,17.525
			c-25.109,0-50.229,0-75.332,0c-28.689,0-57.377,0-86.054,0c0-5.842,0-11.683,0-17.525c25.115,0,50.223,0,75.332,0
			C138.549,4.773,167.226,4.773,195.915,4.773z M139.146,160.736c0,1.659,0,3.318,0,4.976c-28.701,0-57.401,0-86.108,0
			c-9.088,0-18.175,0-27.263,0c0.304-10.848,0.095-21.749,0.125-32.585c0.054-15.138,0.107-30.276,0.161-45.414
			c0.012-4.272-0.131-8.556-0.227-12.841c28.563,0,57.115,0,85.678,0c9.213,0,18.42,0,27.627,0
			C139.146,103.495,139.146,132.112,139.146,160.736z M202.144,128.395c0.048,13.229,0.101,26.457,0.143,39.686
			c0.024,8.115,0.698,16.009-0.77,24.082c-1.545,8.551-5.161,16.516-11.832,22.25c-12.674,10.896-30.867,9.022-46.488,9.022
			c-18.235,0-36.469,0-54.698,0c-15.502,0-32.716,1.921-46.494-6.414c-15.621-9.469-17.185-29.279-16.403-45.712
			c0.012-0.274,0.012-0.555,0.024-0.829c28.629,0,57.258,0,85.893,0c10.006,0,20.013,0,30.019,0c0.632,0,1.11-0.233,1.48-0.561
			c0.078-0.054,0.143-0.095,0.209-0.155c0.036-0.036,0.066-0.084,0.095-0.125c0.358-0.37,0.609-0.871,0.609-1.545
			c0-29.423,0-58.833,0-88.25c0-2.452,0-4.905,0-7.357c0-1.301-1.086-2.387-2.387-2.387c-29.5,0-58.994,0-88.495,0
			c-9.076,0-18.163,0-27.239,0c-0.006-4.821,0.161-9.631,0.931-14.416c0.871-5.394,2.649-10.514,5.728-15.048
			c3.664-5.4,9.255-9.201,14.941-12.196c0.644-0.34,0.991-0.835,1.122-1.366c20.448,0,40.897,0,61.339,0c23.85,0,47.699,0,71.543,0
			c0.137,0.507,0.412,0.996,0.955,1.366c9.523,6.51,17.644,14.35,19.762,26.081c1.927,10.657-0.167,21.755-0.125,32.478
			C202.043,100.792,202.097,114.588,202.144,128.395z"/>
	</g>
</g>
<g>
</g>
<g>
</g>
<g>
</g>
<g>
</g>
<g>
</g>
<g>
</g>
<g>
</g>
<g>
</g>
<g>
</g>
<g>
</g>
<g>
</g>
<g>
</g>
<g>
</g>
<g>
</g>
<g>
</g>
</svg>
