<svg id="Capa_1" enable-background="new 0 0 512 512" height="512" viewBox="0 0 512 512" width="512" xmlns="http://www.w3.org/2000/svg"><g><path fill="#fff" d="m225.998 421.996h30.002v30h-30.002z"/><path fill="#fff" d="m406.993 120.008v-60.004h-90.99v-60.004h-150.008v60.004h-90.99v90.004h31.747l27.953 225.461-45.511 136.531h303.609l-45.511-136.532 9.111-73.482h4.469c41.975 0 76.123-34.148 76.123-76.122v-105.856zm-210.998-90.008h90.008v30.004h-90.008zm-90.99 60.004h271.988v30.004h-271.988zm240.012 60.004-26.282 211.984h-155.471l-3.842-30.988h51.575v-30h-55.295l-3.72-30.004h59.015v-30h-62.734l-3.72-30.004h66.454v-30h-70.174l-3.842-30.988zm-214.2 331.992 30.002-90.008h160.358l30.004 90.008zm276.178-256.136c0 25.432-20.69 46.122-46.123 46.122h-.749l15.123-121.979h31.747.002z"/></g></svg>