<?xml version="1.0" encoding="iso-8859-1"?>
<!-- Generator: Adobe Illustrator 16.0.0, SVG Export Plug-In . SVG Version: 6.00 Build 0)  -->
<!DOCTYPE svg PUBLIC "-//W3C//DTD SVG 1.1//EN" "http://www.w3.org/Graphics/SVG/1.1/DTD/svg11.dtd">
<svg version="1.1" id="Capa_1" xmlns="http://www.w3.org/2000/svg" xmlns:xlink="http://www.w3.org/1999/xlink" x="0px" y="0px"
	 width="43.23px" height="43.23px" viewBox="0 0 43.23 43.23" style="enable-background:new 0 0 43.23 43.23;" xml:space="preserve"
	>
<g>
	<g id="Layer_100_40_">
		<g>
			<polygon points="41.93,5.661 40.52,30.203 21.776,36.373 21.774,36.365 0,32.449 0.287,34.1 21.903,38.027 41.969,31.131 
				43.23,6.271 			"/>
			<path d="M39.193,29.59L40.65,5.203L15.217,7.116l-0.299,19.423h-0.004L1.016,31.424l20.614,3.723L39.193,29.59z M21.655,31.531
				l1.532-0.664L24.447,31l-1.532,0.664L21.655,31.531z M29.356,29.992l-1.263-0.125l1.35-0.688l1.263,0.127L29.356,29.992z
				 M31.24,29.355l1.262,0.121l-1.383,0.689l-1.262-0.127L31.24,29.355z M27.732,30.164l1.263,0.123l-1.467,0.676l-1.261-0.123
				L27.732,30.164z M25.764,30.791l-1.262-0.125l1.506-0.674l1.264,0.125L25.764,30.791z M27.549,29.816l-1.262-0.127l1.428-0.68
				l1.262,0.123L27.549,29.816z M25.784,29.639l-1.261-0.121l1.447-0.635l1.26,0.123L25.784,29.639z M24.059,29.473l-1.262-0.125
				l1.442-0.627l1.263,0.125L24.059,29.473z M22.297,29.301l-1.264-0.123l1.523-0.672l1.312,0.127L22.297,29.301z M20.492,29.123
				L19.231,29l1.62-0.662l1.215,0.119L20.492,29.123z M18.73,28.949l-1.262-0.121l1.648-0.66l1.276,0.127L18.73,28.949z
				 M16.896,28.771l-1.261-0.125l1.799-0.643l1.277,0.125L16.896,28.771z M16.859,29.117l-1.721,0.633l-1.262-0.123l1.721-0.631
				L16.859,29.117z M15.723,30.139l-1.618,0.58l-1.262-0.137l1.619-0.58L15.723,30.139z M16.201,30.154l1.191,0.154l-1.525,0.598
				l-1.261-0.135L16.201,30.154z M16.901,29.924l-1.26-0.123l1.67-0.658l1.262,0.123L16.901,29.924z M19.051,29.314l1.262,0.125
				l-1.609,0.66l-1.262-0.125L19.051,29.314z M20.85,29.488l1.261,0.125l-1.644,0.66l-1.262-0.123L20.85,29.488z M22.619,29.658
				l1.262,0.125l-1.688,0.656l-1.262-0.123L22.619,29.658z M24.266,29.824l1.263,0.121l-1.571,0.668l-1.262-0.123L24.266,29.824z
				 M23.459,31.723l1.456-0.637l1.261,0.131l-1.457,0.645L23.459,31.723z M26.482,32.047l-1.262-0.133l1.486-0.594l1.26,0.137
				L26.482,32.047z M27.991,31.01l1.378-0.662l1.262,0.123l-1.375,0.664L27.991,31.01z M30.904,31.305l-1.25-0.123l1.365-0.664
				l1.25,0.121L30.904,31.305z M32.846,30.334l-1.264-0.125l1.407-0.703l1.263,0.123L32.846,30.334z M26.825,6.958
				c0.313,0,0.567,0.273,0.567,0.611c0,0.339-0.254,0.611-0.567,0.611s-0.567-0.272-0.567-0.611
				C26.26,7.231,26.512,6.958,26.825,6.958z M16.724,9.324l21.903-1.224l-1.42,19.812l-20.801-1.867L16.724,9.324z M15.559,27.82
				l1.313,0.129l-1.795,0.578l-1.262-0.123L15.559,27.82z M13.932,28.771l1.262,0.125l-1.783,0.686l-1.262-0.125L13.932,28.771z
				 M12.675,29.736l1.261,0.135l-1.643,0.59l-1.262-0.133L12.675,29.736z M16.109,33.195l-5.558-0.941l2.336-0.736l6.155,0.801
				L16.109,33.195z M16.406,30.965l1.52-0.631l4.636,0.498l-1.521,0.635L16.406,30.965z"/>
		</g>
	</g>
</g>
<g>
</g>
<g>
</g>
<g>
</g>
<g>
</g>
<g>
</g>
<g>
</g>
<g>
</g>
<g>
</g>
<g>
</g>
<g>
</g>
<g>
</g>
<g>
</g>
<g>
</g>
<g>
</g>
<g>
</g>
</svg>
