<svg id="Layer_3" enable-background="new 0 0 64 64" height="512" viewBox="0 0 64 64" width="512" xmlns="http://www.w3.org/2000/svg"><g><path d="m50 22-1.913 38.091c-.049 1.068-.929 1.909-1.998 1.909h-28.178c-1.069 0-1.949-.841-1.998-1.909l-1.913-38.091" fill="#a8b0bc"/><path d="m29.827 22h-15.827l.97 19.305c6.596-4.886 11.781-11.561 14.857-19.305z" fill="#c1c8d1"/><path d="m48.292 56-.205 4.091c-.049 1.068-.929 1.909-1.998 1.909h-28.178c-1.069 0-1.949-.841-1.998-1.909l-.205-4.091z" fill="#758190"/><g fill="#e7e4dd"><path d="m34 34.999v2h4c.458 0 .859-.312.97-.757l1-4-1.94-.485-.49 1.962-4.74-6.319c-.378-.504-1.222-.503-1.6 0l-6 8 1.6 1.2 5.2-6.933 4 5.333h-2z"/><path d="m44.848 45.469-5-8-1.696 1.06 4.043 6.47h-5.781l1.292-1.292-1.415-1.415-3 3c-.39.391-.39 1.024 0 1.415l3 3 1.415-1.415-1.293-1.293h7.587c.364 0 .699-.197.875-.515s.166-.707-.027-1.015z"/><path d="m24.6 40.525.429 1.717 1.94-.485-1-4c-.064-.257-.228-.479-.456-.615-.227-.136-.497-.176-.757-.112l-4 1 .485 1.94 1.597-.399-3.687 5.899c-.193.308-.203.697-.027 1.015s.512.515.876.515h10v-2h-8.196z"/></g><path d="m52 22h-40c-1.105 0-2-.895-2-2 0-1.105.895-2 2-2h40c1.105 0 2 .895 2 2 0 1.105-.895 2-2 2z" fill="#758190"/><path d="m52 14h-40v-2c0-2.209 1.791-4 4-4h32c2.209 0 4 1.791 4 4z" fill="#758190"/><g><path d="m39 8-.001-4c0-.552-.448-1-1-1h-11.999c-.552 0-1 .448-1 1v4h-2v-4c0-1.654 1.346-3 3-3h12c1.654 0 3 1.346 3 3l.001 4z" fill="#a8b0bc"/></g><g fill="#8892a0"><path d="m31.198 18h-19.198c-1.105 0-2 .895-2 2s.895 2 2 2h17.827c.519-1.304.976-2.638 1.371-4z"/><path d="m32.894 8h-16.894c-2.209 0-4 1.791-4 4v2h20.159c.374-1.958.627-3.959.735-6z"/></g></g></svg>