<svg id="Capa_1" enable-background="new 0 0 512 512" height="512" viewBox="0 0 512 512" width="512" xmlns="http://www.w3.org/2000/svg"><g><path d="m468.455 160.709c1.691-8.575 2.545-17.185 2.545-25.709 0-74.439-60.561-135-135-135-47.948 0-92.023 25.58-116.129 66.299-10.801-4.146-22.285-6.299-33.871-6.299-47.601 0-87.137 35.193-93.96 80.924-51.322 6.847-91.04 50.91-91.04 104.076 0 57.897 47.103 105 105 105h105v147c0 8.284 6.716 15 15 15h60c8.284 0 15-6.716 15-15v-147h105c57.897 0 105-47.103 105-105 0-33.249-16.058-64.613-42.545-84.291zm-197.455 321.291h-30v-207c0-8.284-6.716-15-15-15h-11.19l41.19-58.843 41.19 58.843h-11.19c-8.284 0-15 6.716-15 15zm135-162h-105v-30h25c5.593 0 10.722-3.112 13.305-8.073s2.191-10.947-1.017-15.529l-70-100c-2.807-4.01-7.393-6.398-12.288-6.398s-9.481 2.388-12.288 6.398l-70 100c-3.208 4.582-3.6 10.568-1.017 15.529s7.712 8.073 13.305 8.073h25v30h-105c-41.355 0-75-33.645-75-75s33.645-75 75-75c8.284 0 15-6.716 15-15 0-35.841 29.159-65 65-65 11.496 0 22.866 3.117 32.88 9.014 3.678 2.165 8.104 2.662 12.172 1.365 4.067-1.298 7.389-4.268 9.132-8.164 16.908-37.795 54.518-62.215 95.816-62.215 57.897 0 105 47.103 105 105 0 9.357-1.345 18.9-3.997 28.362-1.839 6.56.974 13.535 6.849 16.984 22.914 13.452 37.148 38.226 37.148 64.654 0 41.355-33.645 75-75 75z"/></g></svg>