<svg id="Layer_3" enable-background="new 0 0 64 64" height="512" viewBox="0 0 64 64" width="512" xmlns="http://www.w3.org/2000/svg"><g><path d="m58 26v-4.515c-1.902 1.571-4.341 2.515-7 2.515h-15v4h4l5 16h14l-5-14z" fill="#f4b2b0"/><g fill="#b3404a"><path d="m38 16h-6c-.553 0-1 .448-1 1v4c0 .552.447 1 1 1h6c.553 0 1-.448 1-1v-4c0-.552-.447-1-1-1zm-1 4h-4v-2h4z"/><path d="m62 43h-2.296l-4.55-12.74 3.553-3.553c.188-.187.293-.442.293-.707v-4h-.089c2.5-2.201 4.089-5.415 4.089-9 0-6.617-5.383-12-12-12h-23c-.553 0-1 .448-1 1v1.279l-5.316 1.772c-.409.137-.684.518-.684.949v1h-2v-1c0-.552-.447-1-1-1h-4c-.155 0-.309.036-.447.105l-8 4c-.339.17-.553.516-.553.895h-4v2h4v2h-4v2h4c0 .379.214.725.553.895l8 4c.138.069.292.105.447.105h4c.553 0 1-.448 1-1v-1h2v1c0 .431.275.812.684.949l5.316 1.772v1.279c0 .552.447 1 1 1h7v3c0 .552.447 1 1 1h3.265l.625 2h-3.89c-.404 0-.77.244-.924.617-.155.374-.069.804.217 1.09l.586.586c.723.723 1.121 1.685 1.121 2.707s-.398 1.984-1.121 2.707l-.586.586c-.286.286-.372.716-.217 1.09.154.373.52.617.924.617h7v-.048l.64 2.048h-1.64c-.553 0-1 .448-1 1v3h-9.5c-2.481 0-4.5 2.019-4.5 4.5s2.019 4.5 4.5 4.5h10.5c.552 0 1 .449 1 1s-.448 1-1 1h-16.142c-.447-1.72-1.999-3-3.858-3h-3c-.553 0-1 .448-1 1h-2v2h2v2h-2v2h2c0 .552.447 1 1 1h3c1.859 0 3.411-1.28 3.858-3h16.142c1.654 0 3-1.346 3-3s-1.346-3-3-3h-10.5c-1.379 0-2.5-1.122-2.5-2.5s1.121-2.5 2.5-2.5h9.5v1c0 .552.447 1 1 1h20c.553 0 1-.448 1-1v-6c0-.552-.447-1-1-1zm-55-32.382 6-3v10.764l-6-3zm10 8.382h-2v-12h2zm5 42h-2v-4h2c1.103 0 2 .897 2 2s-.897 2-2 2zm39-48c0 4.829-3.441 8.869-8 9.798v-2.057c3.474-.899 6-4.083 6-7.742s-2.526-6.842-6-7.742v-2.055c4.559.929 8 4.969 8 9.798zm-8 5h1.27c-.396.261-.815.488-1.27.65zm3.181-2h-3.181v-2h3.908c-.123.715-.371 1.389-.727 2zm-3.181-4v-2h3.181c.355.611.604 1.285.726 2zm0-4v-.65c.455.162.874.389 1.27.65zm-20-5h14v4h-14zm-14 14v-8h2v8zm4 2.279v-12.558l4-1.333v15.225zm6-16.279h2v5c0 .552.447 1 1 1h16c.553 0 1-.448 1-1v-5h2v20h-22zm9.171 36c.541-.896.829-1.926.829-3s-.288-2.104-.829-3h2.344l1.875 6zm2.783-11.298c-.13-.418-.517-.702-.954-.702h-3v-2h14c2.187 0 4.233-.598 6-1.624v2.21l-3.707 3.707c-.273.273-.364.679-.234 1.043l4.522 12.664h-11.846zm20.046 21.298h-18v-4h18z"/></g></g></svg>