<?xml version="1.0" standalone="no"?>
<!DOCTYPE svg PUBLIC "-//W3C//DTD SVG 20010904//EN"
 "http://www.w3.org/TR/2001/REC-SVG-20010904/DTD/svg10.dtd">
<svg version="1.0" xmlns="http://www.w3.org/2000/svg"
 width="258.000000pt" height="190.000000pt" viewBox="0 0 258.000000 190.000000"
 preserveAspectRatio="xMidYMid meet">
<metadata>
Created by potrace 1.15, written by Peter Selinger 2001-2017
</metadata>
<g transform="translate(0.000000,190.000000) scale(0.100000,-0.100000)"
fill="#000000" stroke="none">
<path d="M10 1893 c0 -2 0 -426 0 -943 l0 -940 1280 0 1280 0 0 940 0 940
-1280 3 c-704 1 -1280 1 -1280 0z m2534 -31 c15 -17 16 -93 14 -928 l-3 -909
-1249 -3 c-1152 -2 -1251 -1 -1268 15 -17 15 -18 56 -18 923 0 499 3 910 7
913 3 4 567 7 1253 7 1197 0 1248 -1 1264 -18z"/>
<path d="M1094 1642 c2 -4 -24 -62 -58 -130 -35 -67 -60 -124 -58 -127 11 -11
118 -4 135 9 14 11 17 30 17 117 -1 71 -5 110 -14 122 -13 16 -32 25 -22 9z"/>
<path d="M1680 1536 c0 -86 3 -105 18 -118 25 -22 43 -31 41 -21 -3 19 2 23
15 11 10 -9 11 -15 2 -21 -9 -6 0 -5 44 2 3 1 -2 6 -10 11 -8 5 -10 10 -4 10
6 0 17 -7 24 -15 7 -8 17 -12 23 -8 6 3 7 1 3 -6 -6 -9 -12 -9 -24 1 -13 10
-13 7 1 -9 11 -13 25 -19 35 -16 10 4 13 2 8 -5 -5 -8 -1 -10 10 -5 11 4 15 3
11 -4 -4 -7 9 -21 30 -34 21 -12 47 -32 58 -44 11 -11 16 -15 12 -8 -5 6 -6
17 -2 23 10 17 34 -7 30 -30 -3 -14 1 -17 12 -13 11 4 14 2 9 -5 -5 -8 -1 -10
10 -5 12 4 15 3 10 -5 -5 -8 -1 -10 10 -5 12 4 15 3 10 -5 -5 -8 -1 -10 10 -5
12 4 15 3 10 -5 -5 -8 -1 -10 10 -5 12 4 15 3 10 -5 -5 -8 -1 -10 10 -5 12 4
15 3 10 -5 -5 -8 -1 -10 10 -5 12 4 15 3 10 -5 -5 -8 -1 -10 10 -5 11 4 15 3
10 -5 -3 -6 3 -16 15 -22 15 -8 19 -9 15 -1 -4 6 -2 11 4 11 6 0 8 5 4 12 -4
6 -3 8 4 4 6 -3 9 -15 7 -26 -3 -13 4 -24 18 -31 19 -9 20 -9 5 4 -10 8 -13
18 -8 26 6 11 8 11 12 0 2 -7 9 -9 17 -5 9 6 9 11 -1 24 -10 12 -10 14 0 8 6
-4 12 -3 12 3 0 5 -6 12 -12 14 -7 3 -3 6 10 6 13 1 20 5 17 11 -4 6 -10 8
-14 6 -4 -3 -13 -1 -21 5 -12 7 -10 9 8 9 13 0 20 4 17 10 -4 6 -11 7 -17 4
-7 -5 -9 -1 -5 9 4 11 1 15 -13 12 -11 -2 -23 1 -26 7 -4 7 -2 8 4 4 7 -4 12
-2 12 4 0 6 5 8 11 4 8 -5 8 -1 0 14 -7 13 -18 19 -31 17 -11 -2 -23 1 -26 7
-4 7 -2 8 4 4 7 -4 12 -2 12 4 0 6 5 8 11 4 28 -17 -31 63 -88 119 -56 57
-136 116 -119 88 4 -6 2 -11 -4 -11 -6 0 -8 -6 -4 -12 4 -7 -5 -1 -20 14 -16
15 -33 25 -38 22 -6 -4 -5 -10 3 -15 8 -5 9 -9 3 -9 -6 0 -18 8 -25 17 -8 9
-9 14 -3 11 6 -4 10 3 10 17 0 14 -6 27 -13 29 -16 7 -17 -6 -1 -22 9 -9 8
-12 -5 -12 -15 0 -21 11 -18 32 0 4 -7 4 -16 1 -10 -4 -14 -2 -9 5 3 6 2 13
-4 17 -6 3 -10 -4 -10 -16 0 -25 -10 -20 -14 7 -2 10 -8 20 -15 22 -9 3 -11
-3 -6 -19 4 -17 3 -20 -3 -10 -6 8 -18 11 -31 6 -11 -3 -26 -3 -33 2 -9 5 -1
10 22 14 27 4 31 7 18 13 -10 5 -26 5 -35 0 -10 -4 -21 -6 -25 -6 -12 3 -9
-13 5 -27 10 -10 9 -12 -3 -9 -8 2 -14 -3 -12 -10 1 -8 -2 -11 -7 -8 -5 4 -8
17 -5 30 2 15 -2 26 -11 30 -13 5 -15 -10 -15 -98z"/>
<path d="M1035 1301 c-3 -6 -1 -12 4 -12 26 -3 30 -4 34 -9 3 -3 -8 -6 -24 -6
-19 -1 -29 3 -29 12 0 16 -46 19 -55 4 -6 -10 9 -15 30 -10 5 1 6 -2 2 -7 -5
-4 -12 -8 -15 -8 -23 -2 -51 -18 -47 -26 4 -5 1 -9 -5 -9 -6 0 -8 -4 -5 -10 3
-5 1 -10 -5 -10 -6 0 -8 -4 -5 -10 3 -5 1 -10 -5 -10 -6 0 -8 -5 -4 -12 4 -7
3 -8 -4 -4 -7 4 -12 1 -12 -8 0 -8 5 -18 12 -22 7 -5 8 -2 3 7 -5 8 4 3 18
-10 27 -24 36 -37 18 -27 -5 4 -11 2 -13 -3 -1 -5 -16 1 -33 15 l-30 24 30 57
c17 32 36 57 43 56 6 -2 12 4 12 13 0 31 -26 7 -61 -58 l-36 -66 92 -92 c54
-54 92 -99 90 -109 -1 -9 -8 -15 -15 -13 -8 2 -10 -3 -6 -13 3 -10 -47 -122
-130 -286 -120 -239 -137 -269 -151 -257 -15 12 -15 13 1 16 9 2 14 8 11 13
-4 5 -1 9 5 9 6 0 8 4 5 10 -3 5 -1 10 5 10 6 0 8 4 5 10 -3 5 -1 10 5 10 6 0
8 4 5 10 -3 6 -1 10 5 10 6 0 8 5 5 10 -3 6 -1 10 5 10 6 0 8 4 5 10 -3 5 -1
10 5 10 6 0 8 4 5 10 -3 5 -1 10 5 10 6 0 8 5 5 10 -3 6 -1 10 5 10 6 0 8 5 5
10 -3 6 -1 10 5 10 6 0 8 5 5 10 -3 6 -1 10 5 10 6 0 8 5 5 10 -3 6 -1 10 5
10 6 0 8 5 5 10 -3 6 -1 10 5 10 6 0 8 5 5 10 -3 6 -1 10 5 10 6 0 8 5 5 10
-3 6 -1 10 5 10 6 0 8 5 5 10 -3 6 -1 10 5 10 6 0 8 5 5 10 -3 6 -1 10 5 10 6
0 8 5 5 10 -3 6 -1 10 5 10 6 0 8 5 5 10 -3 6 -1 10 5 10 6 0 8 5 5 10 -3 6
-1 10 5 10 6 0 8 5 5 10 -3 6 -1 10 5 10 6 0 8 5 5 10 -3 6 -1 10 5 10 6 0 8
5 5 10 -3 6 -1 10 6 10 7 0 9 3 6 7 -4 3 1 12 11 20 11 9 11 12 2 7 -12 -5
-12 -4 -3 6 9 10 5 18 -15 37 -15 14 -21 22 -14 18 6 -3 12 -1 12 6 0 8 4 8
15 -1 9 -7 18 -11 20 -8 3 2 -33 42 -80 88 l-85 83 -25 -49 c-14 -27 -24 -58
-23 -69 2 -14 -2 -19 -15 -17 -9 2 -16 -2 -15 -9 4 -14 -30 -21 -38 -8 -3 5
-10 6 -16 3 -8 -5 -9 -1 -5 10 5 11 3 15 -5 10 -8 -5 -9 -2 -5 10 4 11 3 15
-4 11 -6 -4 -9 -1 -8 6 5 25 -12 59 -29 59 -13 0 -13 -2 4 -14 16 -13 17 -17
5 -28 -10 -9 -12 -9 -7 0 4 7 1 12 -8 12 -10 0 -13 -8 -10 -27 3 -20 2 -24 -5
-14 -5 8 -8 27 -6 42 2 16 1 30 -3 33 -4 2 -7 24 -5 47 1 27 -1 39 -8 32 -6
-6 -8 -101 -7 -243 2 -186 6 -234 17 -238 9 -3 11 2 6 17 -8 27 2 27 26 -1 13
-16 17 -32 13 -50 -4 -19 -1 -28 8 -28 11 0 11 -2 0 -9 -11 -7 -9 -13 9 -30
12 -11 19 -21 14 -21 -4 0 0 -9 9 -19 13 -14 16 -28 11 -50 -5 -22 -3 -31 6
-31 7 0 5 -6 -6 -14 -18 -13 -18 -14 3 -31 11 -10 19 -22 16 -27 -3 -4 -2 -18
2 -30 5 -18 48 60 205 372 l199 395 -3 85 c-2 75 -4 85 -19 82 -10 -2 -18 2
-18 8 0 5 4 9 9 8 5 -2 11 2 13 7 4 14 -68 19 -77 6z"/>
<path d="M2123 1054 c-4 -11 -8 -12 -13 -4 -6 9 -13 9 -29 -1 -21 -14 -21 -17
-21 -370 l0 -356 23 -21 c21 -20 34 -22 123 -22 64 0 104 4 112 12 9 9 12 96
12 329 l0 317 -35 31 c-38 33 -56 41 -35 16 9 -11 9 -15 1 -15 -7 0 -9 -5 -5
-12 6 -10 4 -10 -8 0 -9 7 -15 22 -13 33 2 12 -4 23 -17 30 -15 8 -19 8 -14 0
4 -6 2 -11 -4 -11 -6 0 -8 -5 -4 -12 4 -6 3 -8 -4 -4 -6 3 -9 15 -7 26 2 13
-4 24 -17 31 -15 8 -19 8 -14 0 4 -6 2 -11 -4 -11 -6 0 -8 -5 -4 -12 4 -6 3
-8 -4 -4 -6 3 -9 15 -7 26 5 24 -3 26 -12 4z"/>
</g>
</svg>
